<?xml version="1.0" encoding="UTF-8" standalone="no"?>
<!-- Created with Inkscape (http://www.inkscape.org/) -->

<svg
   xmlns:dc="http://purl.org/dc/elements/1.1/"
   xmlns:cc="http://creativecommons.org/ns#"
   xmlns:rdf="http://www.w3.org/1999/02/22-rdf-syntax-ns#"
   xmlns:svg="http://www.w3.org/2000/svg"
   xmlns="http://www.w3.org/2000/svg"
   xmlns:sodipodi="http://sodipodi.sourceforge.net/DTD/sodipodi-0.dtd"
   xmlns:inkscape="http://www.inkscape.org/namespaces/inkscape"
   version="1.1"
   id="svg3844"
   xml:space="preserve"
   width="60"
   height="60"
   viewBox="0 0 800 800"
   sodipodi:docname="logotype-element-18-publicdomainvectors.org.svg"
   inkscape:version="0.92.4 (5da689c313, 2019-01-14)"><metadata
     id="metadata3850"><rdf:RDF><cc:Work
         rdf:about=""><dc:format>image/svg+xml</dc:format><dc:type
           rdf:resource="http://purl.org/dc/dcmitype/StillImage" /><dc:title></dc:title></cc:Work></rdf:RDF></metadata><defs
     id="defs3848"><clipPath
       clipPathUnits="userSpaceOnUse"
       id="clipPath3860"><path
         d="M 0,600 H 600 V 0 H 0 Z"
         id="path3858"
         inkscape:connector-curvature="0" /></clipPath></defs><sodipodi:namedview
     pagecolor="#ffffff"
     bordercolor="#666666"
     borderopacity="1"
     objecttolerance="10"
     gridtolerance="10"
     guidetolerance="10"
     inkscape:pageopacity="0"
     inkscape:pageshadow="2"
     inkscape:window-width="1920"
     inkscape:window-height="1018"
     id="namedview3846"
     showgrid="false"
     inkscape:zoom="0.93453358"
     inkscape:cx="472.88136"
     inkscape:cy="423.72881"
     inkscape:window-x="-8"
     inkscape:window-y="-8"
     inkscape:window-maximized="1"
     inkscape:current-layer="g3852" /><g
     id="g3852"
     inkscape:groupmode="layer"
     inkscape:label="logotype-element-18-publicdomainvectors.org"
     transform="matrix(1.3333333,0,0,-1.3333333,0,800)"><g
       id="g3854"><g
         id="g3856"
         clip-path="url(#clipPath3860)"><path
           d="m 281.66,279.333 c 102.308,-139.552 256.062,4.677 263.836,17.558 l -38.564,29.097 c 0,0 -96.301,-164.087 -225.272,-46.655"
           style="fill:#231f20;fill-opacity:1;fill-rule:nonzero;stroke:none"
           id="path3862"
           inkscape:connector-curvature="0" /><path
           d="M 262.75,293.072 C 299.452,123.971 498.575,193.195 510.916,201.8 l -23.394,42.267 c 0,0 -154.715,-110.732 -224.772,49.005"
           style="fill:#231f20;fill-opacity:1;fill-rule:nonzero;stroke:none"
           id="path3864"
           inkscape:connector-curvature="0" /><path
           d="M 251.061,313.314 C 215.813,143.906 425.875,126.152 440.651,128.995 l -4.181,48.13 c 0,0 -186.377,-38.231 -185.409,136.189"
           style="fill:#231f20;fill-opacity:1;fill-rule:nonzero;stroke:none"
           id="path3866"
           inkscape:connector-curvature="0" /><path
           d="M 248.617,336.563 C 147.513,196.137 332.193,94.479 346.848,91.063 l 15.756,45.67 c 0,0 -185.816,40.882 -113.987,199.83"
           style="fill:#231f20;fill-opacity:1;fill-rule:nonzero;stroke:none"
           id="path3868"
           inkscape:connector-curvature="0" /><path
           d="M 255.841,358.794 C 106.361,271.631 233.727,103.646 245.724,94.568 l 32.969,35.311 c 0,0 -153.12,112.923 -22.852,228.915"
           style="fill:#231f20;fill-opacity:1;fill-rule:nonzero;stroke:none"
           id="path3870"
           inkscape:connector-curvature="0" /><path
           d="M 271.482,376.165 C 99.474,357.338 147.501,152.069 154.77,138.896 l 44.481,18.849 c 0,0 -93.954,165.443 72.231,218.42"
           style="fill:#231f20;fill-opacity:1;fill-rule:nonzero;stroke:none"
           id="path3872"
           inkscape:connector-curvature="0" /><path
           d="M 292.838,385.672 C 128.042,438.436 88.427,231.38 89.709,216.388 l 48.302,-0.874 c 0,0 -18.539,189.355 154.827,170.158"
           style="fill:#231f20;fill-opacity:1;fill-rule:nonzero;stroke:none"
           id="path3874"
           inkscape:connector-curvature="0" /><path
           d="M 316.213,385.672 C 187.125,500.902 66.717,327.859 61.791,313.644 l 43.772,-20.445 c 0,0 60.081,180.523 210.65,92.473"
           style="fill:#231f20;fill-opacity:1;fill-rule:nonzero;stroke:none"
           id="path3876"
           inkscape:connector-curvature="0" /><path
           d="m 337.566,376.165 c -71.06,157.773 -251.44,48.663 -261.721,37.68 l 31.672,-36.479 c 0,0 128.311,140.479 230.049,-1.201"
           style="fill:#231f20;fill-opacity:1;fill-rule:nonzero;stroke:none"
           id="path3878"
           inkscape:connector-curvature="0" /><path
           d="M 353.208,358.794 C 352.464,531.829 143.299,505.521 129.439,499.668 l 14.097,-46.208 c 0,0 174.356,76.145 209.672,-94.666"
           style="fill:#231f20;fill-opacity:1;fill-rule:nonzero;stroke:none"
           id="path3880"
           inkscape:connector-curvature="0" /><path
           d="M 360.432,336.563 C 430.132,494.94 228.351,555.98 213.307,556.272 l -5.917,-47.946 c 0,0 190.253,-1.355 153.042,-171.763"
           style="fill:#231f20;fill-opacity:1;fill-rule:nonzero;stroke:none"
           id="path3882"
           inkscape:connector-curvature="0" /><path
           d="M 357.988,313.314 C 486.081,429.651 326.571,567.485 312.946,573.872 L 288.04,532.476 c 0,0 173.255,-78.62 69.948,-219.162"
           style="fill:#231f20;fill-opacity:1;fill-rule:nonzero;stroke:none"
           id="path3884"
           inkscape:connector-curvature="0" /><path
           d="m 346.299,293.072 c 164.336,54.177 74.68,244.974 64.833,256.349 l -39.59,-27.686 c 0,0 126.296,-142.292 -25.243,-228.663"
           style="fill:#231f20;fill-opacity:1;fill-rule:nonzero;stroke:none"
           id="path3886"
           inkscape:connector-curvature="0" /><path
           d="m 327.389,279.333 c 172.166,-17.348 167.864,193.419 163.493,207.816 l -47.429,-9.189 c 0,0 57.504,-181.36 -116.064,-198.627"
           style="fill:#231f20;fill-opacity:1;fill-rule:nonzero;stroke:none"
           id="path3888"
           inkscape:connector-curvature="0" /><path
           d="m 304.524,274.472 c 150.224,-85.873 232.022,108.422 233.885,123.352 l -47.064,10.895 c 0,0 -21.235,-189.069 -186.821,-134.247"
           style="fill:#231f20;fill-opacity:1;fill-rule:nonzero;stroke:none"
           id="path3890"
           inkscape:connector-curvature="0" /></g></g></g></svg>